{
    "asset" : {
        "generator" : "Khronos glTF Blender I/O v3.3.32",
        "version" : "2.0"
    },
    "extensionsUsed" : [
        "KHR_materials_specular"
    ],
    "scene" : 0,
    "scenes" : [
        {
            "name" : "Scene",
            "nodes" : [
                0,
                1,
                2,
                3,
                4,
                5,
                6
            ]
        }
    ],
    "nodes" : [
        {
            "mesh" : 0,
            "name" : "node_damagedHelmet_-6514",
            "rotation" : [
                0.7071068286895752,
                0,
                0,
                0.7071067094802856
            ],
            "scale" : [
                0.28873753547668457,
                0.2887375056743622,
                0.2887375056743622
            ],
            "translation" : [
                0.7837903499603271,
                1.2886714935302734,
                0
            ]
        },
        {
            "mesh" : 1,
            "name" : "node_damagedHelmet_-6514.001",
            "rotation" : [
                0.7071068286895752,
                0,
                0,
                0.7071067094802856
            ],
            "scale" : [
                0.28873753547668457,
                0.2887375056743622,
                0.2887375056743622
            ],
            "translation" : [
                0.7837903499603271,
                1.2886714935302734,
                0
            ]
        },
        {
            "mesh" : 2,
            "name" : "node_damagedHelmet_-6514.002",
            "rotation" : [
                0.7071068286895752,
                0,
                0,
                0.7071067094802856
            ],
            "scale" : [
                0.28873753547668457,
                0.2887375056743622,
                0.2887375056743622
            ],
            "translation" : [
                -0.33752477169036865,
                1.2886714935302734,
                0
            ]
        },
        {
            "mesh" : 3,
            "name" : "node_damagedHelmet_-6514.003",
            "rotation" : [
                0.7071068286895752,
                0,
                0,
                0.7071067094802856
            ],
            "scale" : [
                0.28873753547668457,
                0.2887375056743622,
                0.2887375056743622
            ],
            "translation" : [
                -0.33752477169036865,
                1.2886714935302734,
                0
            ]
        },
        {
            "mesh" : 4,
            "name" : "node_damagedHelmet_-6514.004",
            "rotation" : [
                0.7071068286895752,
                0,
                0,
                0.7071067094802856
            ],
            "scale" : [
                0.28873753547668457,
                0.2887375056743622,
                0.2887375056743622
            ],
            "translation" : [
                -2.2897138595581055,
                1.2886714935302734,
                0
            ]
        },
        {
            "mesh" : 5,
            "name" : "node_damagedHelmet_-6514.005",
            "rotation" : [
                0.7071068286895752,
                0,
                0,
                0.7071067094802856
            ],
            "scale" : [
                0.28873753547668457,
                0.2887375056743622,
                0.2887375056743622
            ],
            "translation" : [
                -1.4035680294036865,
                1.2886714935302734,
                0
            ]
        },
        {
            "mesh" : 6,
            "name" : "Cube",
            "rotation" : [
                1,
                0,
                0,
                0
            ],
            "scale" : [
                -6.54396390914917,
                -0.28873753547668457,
                -4.7113118171691895
            ],
            "translation" : [
                -0.31676769256591797,
                -0.08247566223144531,
                0
            ]
        }
    ],
    "materials" : [
        {
            "emissiveFactor" : [
                1,
                1,
                1
            ],
            "emissiveTexture" : {
                "index" : 0
            },
            "extensions" : {
                "KHR_materials_specular" : {
                    "specularColorFactor" : [
                        1.0,
                        1.0,
                        1.0
                    ]
                }
            },
            "name" : "Material_MR.008",
            "normalTexture" : {
                "index" : 1
            },
            "occlusionTexture" : {
                "index" : 2
            },
            "pbrMetallicRoughness" : {
                "baseColorTexture" : {
                    "index" : 3
                },
                "metallicRoughnessTexture" : {
                    "index" : 2
                }
            }
        },
        {
            "emissiveFactor" : [
                1,
                1,
                1
            ],
            "emissiveTexture" : {
                "index" : 4
            },
            "name" : "Material_MR.009",
            "normalTexture" : {
                "index" : 5
            },
            "pbrMetallicRoughness" : {
                "baseColorTexture" : {
                    "index" : 6
                },
                "metallicRoughnessTexture" : {
                    "index" : 7
                }
            }
        },
        {
            "emissiveFactor" : [
                1,
                1,
                1
            ],
            "emissiveTexture" : {
                "index" : 8
            },
            "name" : "Material_MR.010",
            "normalTexture" : {
                "index" : 9
            },
            "pbrMetallicRoughness" : {
                "baseColorTexture" : {
                    "index" : 10
                },
                "metallicRoughnessTexture" : {
                    "index" : 11
                }
            }
        },
        {
            "emissiveFactor" : [
                1,
                1,
                1
            ],
            "emissiveTexture" : {
                "index" : 12
            },
            "name" : "Material_MR.011",
            "normalTexture" : {
                "index" : 13
            },
            "pbrMetallicRoughness" : {
                "baseColorTexture" : {
                    "index" : 14
                },
                "metallicRoughnessTexture" : {
                    "index" : 15
                }
            }
        },
        {
            "emissiveFactor" : [
                1,
                1,
                1
            ],
            "emissiveTexture" : {
                "index" : 16
            },
            "name" : "Material_MR.012",
            "normalTexture" : {
                "index" : 17
            },
            "pbrMetallicRoughness" : {
                "baseColorTexture" : {
                    "index" : 18
                },
                "metallicRoughnessTexture" : {
                    "index" : 19
                }
            }
        },
        {
            "emissiveFactor" : [
                1,
                1,
                1
            ],
            "emissiveTexture" : {
                "index" : 20
            },
            "name" : "Material_MR.013",
            "normalTexture" : {
                "index" : 21
            },
            "pbrMetallicRoughness" : {
                "baseColorTexture" : {
                    "index" : 22
                },
                "metallicRoughnessTexture" : {
                    "index" : 23
                }
            }
        }
    ],
    "meshes" : [
        {
            "name" : "mesh_helmet_LP_13930damagedHelmet.008",
            "primitives" : [
                {
                    "attributes" : {
                        "POSITION" : 0,
                        "NORMAL" : 1,
                        "TEXCOORD_0" : 2
                    },
                    "indices" : 3,
                    "material" : 0
                }
            ]
        },
        {
            "name" : "mesh_helmet_LP_13930damagedHelmet.009",
            "primitives" : [
                {
                    "attributes" : {
                        "POSITION" : 4,
                        "NORMAL" : 5,
                        "TEXCOORD_0" : 6
                    },
                    "indices" : 3,
                    "material" : 1
                }
            ]
        },
        {
            "name" : "mesh_helmet_LP_13930damagedHelmet.010",
            "primitives" : [
                {
                    "attributes" : {
                        "POSITION" : 7,
                        "NORMAL" : 8,
                        "TEXCOORD_0" : 9
                    },
                    "indices" : 3,
                    "material" : 2
                }
            ]
        },
        {
            "name" : "mesh_helmet_LP_13930damagedHelmet.011",
            "primitives" : [
                {
                    "attributes" : {
                        "POSITION" : 10,
                        "NORMAL" : 11,
                        "TEXCOORD_0" : 12
                    },
                    "indices" : 3,
                    "material" : 3
                }
            ]
        },
        {
            "name" : "mesh_helmet_LP_13930damagedHelmet.012",
            "primitives" : [
                {
                    "attributes" : {
                        "POSITION" : 13,
                        "NORMAL" : 14,
                        "TEXCOORD_0" : 15
                    },
                    "indices" : 3,
                    "material" : 4
                }
            ]
        },
        {
            "name" : "mesh_helmet_LP_13930damagedHelmet.013",
            "primitives" : [
                {
                    "attributes" : {
                        "POSITION" : 16,
                        "NORMAL" : 17,
                        "TEXCOORD_0" : 18
                    },
                    "indices" : 3,
                    "material" : 5
                }
            ]
        },
        {
            "name" : "Cube.001",
            "primitives" : [
                {
                    "attributes" : {
                        "POSITION" : 19,
                        "NORMAL" : 20,
                        "TEXCOORD_0" : 21
                    },
                    "indices" : 22
                }
            ]
        }
    ],
    "textures" : [
        {
            "sampler" : 0,
            "source" : 0
        },
        {
            "sampler" : 0,
            "source" : 1
        },
        {
            "sampler" : 0,
            "source" : 2
        },
        {
            "sampler" : 0,
            "source" : 3
        },
        {
            "sampler" : 0,
            "source" : 0
        },
        {
            "sampler" : 0,
            "source" : 1
        },
        {
            "sampler" : 0,
            "source" : 3
        },
        {
            "sampler" : 0,
            "source" : 4
        },
        {
            "sampler" : 0,
            "source" : 0
        },
        {
            "sampler" : 0,
            "source" : 1
        },
        {
            "sampler" : 0,
            "source" : 3
        },
        {
            "sampler" : 0,
            "source" : 4
        },
        {
            "sampler" : 0,
            "source" : 0
        },
        {
            "sampler" : 0,
            "source" : 1
        },
        {
            "sampler" : 0,
            "source" : 3
        },
        {
            "sampler" : 0,
            "source" : 4
        },
        {
            "sampler" : 0,
            "source" : 0
        },
        {
            "sampler" : 0,
            "source" : 1
        },
        {
            "sampler" : 0,
            "source" : 3
        },
        {
            "sampler" : 0,
            "source" : 4
        },
        {
            "sampler" : 0,
            "source" : 0
        },
        {
            "sampler" : 0,
            "source" : 1
        },
        {
            "sampler" : 0,
            "source" : 3
        },
        {
            "sampler" : 0,
            "source" : 4
        }
    ],
    "images" : [
        {
            "mimeType" : "image/jpeg",
            "name" : "Image_2",
            "uri" : "Image_2.jpg"
        },
        {
            "mimeType" : "image/jpeg",
            "name" : "Image_4",
            "uri" : "Image_4.jpg"
        },
        {
            "mimeType" : "image/png",
            "name" : "Image_3-Image_1",
            "uri" : "Image_3-Image_1.png"
        },
        {
            "mimeType" : "image/jpeg",
            "name" : "Image_0",
            "uri" : "Image_0.jpg"
        },
        {
            "mimeType" : "image/jpeg",
            "name" : "Image_1",
            "uri" : "Image_1.jpg"
        }
    ],
    "accessors" : [
        {
            "bufferView" : 0,
            "componentType" : 5126,
            "count" : 16397,
            "max" : [
                0.9424954056739807,
                0.8128451108932495,
                0.900973916053772
            ],
            "min" : [
                -0.9474585652351379,
                -1.18715500831604,
                -0.9009949564933777
            ],
            "type" : "VEC3"
        },
        {
            "bufferView" : 1,
            "componentType" : 5126,
            "count" : 16397,
            "type" : "VEC3"
        },
        {
            "bufferView" : 2,
            "componentType" : 5126,
            "count" : 16397,
            "type" : "VEC2"
        },
        {
            "bufferView" : 3,
            "componentType" : 5123,
            "count" : 46356,
            "type" : "SCALAR"
        },
        {
            "bufferView" : 4,
            "componentType" : 5126,
            "count" : 16397,
            "max" : [
                0.9424954056739807,
                0.8128451108932495,
                0.900973916053772
            ],
            "min" : [
                -0.9474585652351379,
                -1.18715500831604,
                -0.9009949564933777
            ],
            "type" : "VEC3"
        },
        {
            "bufferView" : 5,
            "componentType" : 5126,
            "count" : 16397,
            "type" : "VEC3"
        },
        {
            "bufferView" : 6,
            "componentType" : 5126,
            "count" : 16397,
            "type" : "VEC2"
        },
        {
            "bufferView" : 7,
            "componentType" : 5126,
            "count" : 16397,
            "max" : [
                0.9424954056739807,
                0.8128451108932495,
                0.900973916053772
            ],
            "min" : [
                -0.9474585652351379,
                -1.18715500831604,
                -0.9009949564933777
            ],
            "type" : "VEC3"
        },
        {
            "bufferView" : 8,
            "componentType" : 5126,
            "count" : 16397,
            "type" : "VEC3"
        },
        {
            "bufferView" : 9,
            "componentType" : 5126,
            "count" : 16397,
            "type" : "VEC2"
        },
        {
            "bufferView" : 10,
            "componentType" : 5126,
            "count" : 16397,
            "max" : [
                0.9424954056739807,
                0.8128451108932495,
                0.900973916053772
            ],
            "min" : [
                -0.9474585652351379,
                -1.18715500831604,
                -0.9009949564933777
            ],
            "type" : "VEC3"
        },
        {
            "bufferView" : 11,
            "componentType" : 5126,
            "count" : 16397,
            "type" : "VEC3"
        },
        {
            "bufferView" : 12,
            "componentType" : 5126,
            "count" : 16397,
            "type" : "VEC2"
        },
        {
            "bufferView" : 13,
            "componentType" : 5126,
            "count" : 16397,
            "max" : [
                0.9424954056739807,
                0.8128451108932495,
                0.900973916053772
            ],
            "min" : [
                -0.9474585652351379,
                -1.18715500831604,
                -0.9009949564933777
            ],
            "type" : "VEC3"
        },
        {
            "bufferView" : 14,
            "componentType" : 5126,
            "count" : 16397,
            "type" : "VEC3"
        },
        {
            "bufferView" : 15,
            "componentType" : 5126,
            "count" : 16397,
            "type" : "VEC2"
        },
        {
            "bufferView" : 16,
            "componentType" : 5126,
            "count" : 16397,
            "max" : [
                0.9424954056739807,
                0.8128451108932495,
                0.900973916053772
            ],
            "min" : [
                -0.9474585652351379,
                -1.18715500831604,
                -0.9009949564933777
            ],
            "type" : "VEC3"
        },
        {
            "bufferView" : 17,
            "componentType" : 5126,
            "count" : 16397,
            "type" : "VEC3"
        },
        {
            "bufferView" : 18,
            "componentType" : 5126,
            "count" : 16397,
            "type" : "VEC2"
        },
        {
            "bufferView" : 19,
            "componentType" : 5126,
            "count" : 24,
            "max" : [
                1,
                1,
                1
            ],
            "min" : [
                -1,
                -1,
                -1
            ],
            "type" : "VEC3"
        },
        {
            "bufferView" : 20,
            "componentType" : 5126,
            "count" : 24,
            "type" : "VEC3"
        },
        {
            "bufferView" : 21,
            "componentType" : 5126,
            "count" : 24,
            "type" : "VEC2"
        },
        {
            "bufferView" : 22,
            "componentType" : 5123,
            "count" : 36,
            "type" : "SCALAR"
        }
    ],
    "bufferViews" : [
        {
            "buffer" : 0,
            "byteLength" : 196764,
            "byteOffset" : 0,
            "target" : 34962
        },
        {
            "buffer" : 0,
            "byteLength" : 196764,
            "byteOffset" : 196764,
            "target" : 34962
        },
        {
            "buffer" : 0,
            "byteLength" : 131176,
            "byteOffset" : 393528,
            "target" : 34962
        },
        {
            "buffer" : 0,
            "byteLength" : 92712,
            "byteOffset" : 524704,
            "target" : 34963
        },
        {
            "buffer" : 0,
            "byteLength" : 196764,
            "byteOffset" : 617416,
            "target" : 34962
        },
        {
            "buffer" : 0,
            "byteLength" : 196764,
            "byteOffset" : 814180,
            "target" : 34962
        },
        {
            "buffer" : 0,
            "byteLength" : 131176,
            "byteOffset" : 1010944,
            "target" : 34962
        },
        {
            "buffer" : 0,
            "byteLength" : 196764,
            "byteOffset" : 1142120,
            "target" : 34962
        },
        {
            "buffer" : 0,
            "byteLength" : 196764,
            "byteOffset" : 1338884,
            "target" : 34962
        },
        {
            "buffer" : 0,
            "byteLength" : 131176,
            "byteOffset" : 1535648,
            "target" : 34962
        },
        {
            "buffer" : 0,
            "byteLength" : 196764,
            "byteOffset" : 1666824,
            "target" : 34962
        },
        {
            "buffer" : 0,
            "byteLength" : 196764,
            "byteOffset" : 1863588,
            "target" : 34962
        },
        {
            "buffer" : 0,
            "byteLength" : 131176,
            "byteOffset" : 2060352,
            "target" : 34962
        },
        {
            "buffer" : 0,
            "byteLength" : 196764,
            "byteOffset" : 2191528,
            "target" : 34962
        },
        {
            "buffer" : 0,
            "byteLength" : 196764,
            "byteOffset" : 2388292,
            "target" : 34962
        },
        {
            "buffer" : 0,
            "byteLength" : 131176,
            "byteOffset" : 2585056,
            "target" : 34962
        },
        {
            "buffer" : 0,
            "byteLength" : 196764,
            "byteOffset" : 2716232,
            "target" : 34962
        },
        {
            "buffer" : 0,
            "byteLength" : 196764,
            "byteOffset" : 2912996,
            "target" : 34962
        },
        {
            "buffer" : 0,
            "byteLength" : 131176,
            "byteOffset" : 3109760,
            "target" : 34962
        },
        {
            "buffer" : 0,
            "byteLength" : 288,
            "byteOffset" : 3240936,
            "target" : 34962
        },
        {
            "buffer" : 0,
            "byteLength" : 288,
            "byteOffset" : 3241224,
            "target" : 34962
        },
        {
            "buffer" : 0,
            "byteLength" : 192,
            "byteOffset" : 3241512,
            "target" : 34962
        },
        {
            "buffer" : 0,
            "byteLength" : 72,
            "byteOffset" : 3241704,
            "target" : 34963
        }
    ],
    "samplers" : [
        {
            "magFilter" : 9729,
            "minFilter" : 9987
        }
    ],
    "buffers" : [
        {
            "byteLength" : 3241776,
            "uri" : "DamagedHelmet.bin"
        }
    ]
}
