{
    "asset" : {
        "generator" : "Khronos glTF Blender I/O v3.3.32",
        "version" : "2.0"
    },
    "extensionsUsed" : [
        "KHR_materials_specular",
        "KHR_lights_punctual"
    ],
    "extensionsRequired" : [
        "KHR_lights_punctual"
    ],
    "extensions" : {
        "KHR_lights_punctual" : {
            "lights" : [
                {
                    "color" : [
                        1,
                        1,
                        1
                    ],
                    "intensity" : 10,
                    "type" : "point",
                    "name" : "Point.001"
                }
            ]
        }
    },
    "scene" : 0,
    "scenes" : [
        {
            "name" : "Scene",
            "nodes" : [
                0,
                1,
                2,
                3,
                4,
                5,
                6,
                7
            ]
        }
    ],
    "nodes" : [
        {
            "mesh" : 0,
            "name" : "node_damagedHelmet_-6514",
            "rotation" : [
                0.7071068286895752,
                0,
                0,
                0.7071067094802856
            ],
            "scale" : [
                0.10306958854198456,
                0.10306958109140396,
                0.10306958109140396
            ],
            "translation" : [
                0.45038723945617676,
                -0.6153082847595215,
                0
            ]
        },
        {
            "mesh" : 1,
            "name" : "node_damagedHelmet_-6514.003",
            "rotation" : [
                0.7071068286895752,
                0,
                0,
                0.7071067094802856
            ],
            "scale" : [
                0.10306958854198456,
                0.10306958109140396,
                0.10306958109140396
            ],
            "translation" : [
                0.05011546611785889,
                -0.6153082847595215,
                0
            ]
        },
        {
            "mesh" : 2,
            "name" : "node_damagedHelmet_-6514.004",
            "rotation" : [
                0.7071068286895752,
                0,
                0,
                0.7071067094802856
            ],
            "scale" : [
                0.10306958854198456,
                0.10306958109140396,
                0.10306958109140396
            ],
            "translation" : [
                -0.6467504501342773,
                -0.6153082847595215,
                0
            ]
        },
        {
            "mesh" : 3,
            "name" : "node_damagedHelmet_-6514.005",
            "rotation" : [
                0.7071068286895752,
                0,
                0,
                0.7071067094802856
            ],
            "scale" : [
                0.10306958854198456,
                0.10306958109140396,
                0.10306958109140396
            ],
            "translation" : [
                -0.3304262161254883,
                -0.6153082847595215,
                0
            ]
        },
        {
            "mesh" : 4,
            "name" : "Cube",
            "rotation" : [
                1,
                0,
                0,
                0
            ],
            "scale" : [
                -4.243372440338135,
                -0.0972505733370781,
                -4.511714458465576
            ],
            "translation" : [
                -0.31676769256591797,
                -1.3859062194824219,
                0
            ]
        },
        {
            "mesh" : 5,
            "name" : "node_damagedHelmet_-6514.001",
            "rotation" : [
                0.7071068286895752,
                0,
                0,
                0.7071067094802856
            ],
            "scale" : [
                0.10306958854198456,
                0.10306958109140396,
                0.10306958109140396
            ],
            "translation" : [
                1.2992095947265625,
                -0.6153082847595215,
                0
            ]
        },
        {
            "mesh" : 6,
            "name" : "node_damagedHelmet_-6514.002",
            "rotation" : [
                0.7071068286895752,
                0,
                0,
                0.7071067094802856
            ],
            "scale" : [
                0.10306958854198456,
                0.10306958109140396,
                0.10306958109140396
            ],
            "translation" : [
                0.8640031814575195,
                -0.6153082847595215,
                0
            ]
        },
        {
            "extensions" : {
                "KHR_lights_punctual" : {
                    "light" : 0
                }
            },
            "name" : "Point",
            "rotation" : [
                -0.7071068286895752,
                0,
                0,
                0.7071068286895752
            ],
            "scale" : [
                0.35696637630462646,
                0.3569663465023041,
                0.3569663465023041
            ],
            "translation" : [
                0.17060044407844543,
                -0.29470622539520264,
                0
            ]
        }
    ],
    "materials" : [
        {
            "emissiveFactor" : [
                1,
                1,
                1
            ],
            "emissiveTexture" : {
                "index" : 0
            },
            "extensions" : {
                "KHR_materials_specular" : {
                    "specularColorFactor" : [
                        1.0,
                        1.0,
                        1.0
                    ]
                }
            },
            "name" : "Material_MR.008",
            "normalTexture" : {
                "index" : 1
            },
            "occlusionTexture" : {
                "index" : 2
            },
            "pbrMetallicRoughness" : {
                "baseColorTexture" : {
                    "index" : 3
                },
                "metallicRoughnessTexture" : {
                    "index" : 2
                }
            }
        },
        {
            "emissiveFactor" : [
                1,
                1,
                1
            ],
            "emissiveTexture" : {
                "index" : 4
            },
            "name" : "Material_MR.011",
            "normalTexture" : {
                "index" : 5
            },
            "pbrMetallicRoughness" : {
                "baseColorTexture" : {
                    "index" : 6
                },
                "metallicRoughnessTexture" : {
                    "index" : 7
                }
            }
        },
        {
            "emissiveFactor" : [
                1,
                1,
                1
            ],
            "emissiveTexture" : {
                "index" : 8
            },
            "name" : "Material_MR.012",
            "normalTexture" : {
                "index" : 9
            },
            "pbrMetallicRoughness" : {
                "baseColorTexture" : {
                    "index" : 10
                },
                "metallicRoughnessTexture" : {
                    "index" : 11
                }
            }
        },
        {
            "emissiveFactor" : [
                1,
                1,
                1
            ],
            "emissiveTexture" : {
                "index" : 12
            },
            "name" : "Material_MR.013",
            "normalTexture" : {
                "index" : 13
            },
            "pbrMetallicRoughness" : {
                "baseColorTexture" : {
                    "index" : 14
                },
                "metallicRoughnessTexture" : {
                    "index" : 15
                }
            }
        },
        {
            "doubleSided" : true,
            "name" : "Material.001",
            "normalTexture" : {
                "index" : 16
            },
            "pbrMetallicRoughness" : {
                "baseColorTexture" : {
                    "index" : 17
                },
                "metallicFactor" : 0,
                "metallicRoughnessTexture" : {
                    "index" : 18
                }
            }
        },
        {
            "emissiveFactor" : [
                1,
                1,
                1
            ],
            "emissiveTexture" : {
                "index" : 19
            },
            "name" : "Material_MR.001",
            "normalTexture" : {
                "index" : 20
            },
            "pbrMetallicRoughness" : {
                "baseColorTexture" : {
                    "index" : 21
                },
                "metallicRoughnessTexture" : {
                    "index" : 22
                }
            }
        },
        {
            "emissiveFactor" : [
                1,
                1,
                1
            ],
            "emissiveTexture" : {
                "index" : 23
            },
            "name" : "Material_MR.002",
            "normalTexture" : {
                "index" : 24
            },
            "pbrMetallicRoughness" : {
                "baseColorTexture" : {
                    "index" : 25
                },
                "metallicRoughnessTexture" : {
                    "index" : 26
                }
            }
        }
    ],
    "meshes" : [
        {
            "name" : "mesh_helmet_LP_13930damagedHelmet.008",
            "primitives" : [
                {
                    "attributes" : {
                        "POSITION" : 0,
                        "NORMAL" : 1,
                        "TEXCOORD_0" : 2
                    },
                    "indices" : 3,
                    "material" : 0
                }
            ]
        },
        {
            "name" : "mesh_helmet_LP_13930damagedHelmet.011",
            "primitives" : [
                {
                    "attributes" : {
                        "POSITION" : 4,
                        "NORMAL" : 5,
                        "TEXCOORD_0" : 6
                    },
                    "indices" : 3,
                    "material" : 1
                }
            ]
        },
        {
            "name" : "mesh_helmet_LP_13930damagedHelmet.012",
            "primitives" : [
                {
                    "attributes" : {
                        "POSITION" : 7,
                        "NORMAL" : 8,
                        "TEXCOORD_0" : 9
                    },
                    "indices" : 3,
                    "material" : 2
                }
            ]
        },
        {
            "name" : "mesh_helmet_LP_13930damagedHelmet.013",
            "primitives" : [
                {
                    "attributes" : {
                        "POSITION" : 10,
                        "NORMAL" : 11,
                        "TEXCOORD_0" : 12
                    },
                    "indices" : 3,
                    "material" : 3
                }
            ]
        },
        {
            "name" : "Cube.001",
            "primitives" : [
                {
                    "attributes" : {
                        "POSITION" : 13,
                        "NORMAL" : 14,
                        "TEXCOORD_0" : 15
                    },
                    "indices" : 16,
                    "material" : 4
                }
            ]
        },
        {
            "name" : "mesh_helmet_LP_13930damagedHelmet.001",
            "primitives" : [
                {
                    "attributes" : {
                        "POSITION" : 17,
                        "NORMAL" : 18,
                        "TEXCOORD_0" : 19
                    },
                    "indices" : 3,
                    "material" : 5
                }
            ]
        },
        {
            "name" : "mesh_helmet_LP_13930damagedHelmet.002",
            "primitives" : [
                {
                    "attributes" : {
                        "POSITION" : 20,
                        "NORMAL" : 21,
                        "TEXCOORD_0" : 22
                    },
                    "indices" : 3,
                    "material" : 6
                }
            ]
        }
    ],
    "textures" : [
        {
            "sampler" : 0,
            "source" : 0
        },
        {
            "sampler" : 0,
            "source" : 1
        },
        {
            "sampler" : 0,
            "source" : 2
        },
        {
            "sampler" : 0,
            "source" : 3
        },
        {
            "sampler" : 0,
            "source" : 0
        },
        {
            "sampler" : 0,
            "source" : 1
        },
        {
            "sampler" : 0,
            "source" : 3
        },
        {
            "sampler" : 0,
            "source" : 4
        },
        {
            "sampler" : 0,
            "source" : 0
        },
        {
            "sampler" : 0,
            "source" : 1
        },
        {
            "sampler" : 0,
            "source" : 3
        },
        {
            "sampler" : 0,
            "source" : 4
        },
        {
            "sampler" : 0,
            "source" : 0
        },
        {
            "sampler" : 0,
            "source" : 1
        },
        {
            "sampler" : 0,
            "source" : 3
        },
        {
            "sampler" : 0,
            "source" : 4
        },
        {
            "sampler" : 0,
            "source" : 5
        },
        {
            "sampler" : 0,
            "source" : 6
        },
        {
            "sampler" : 0,
            "source" : 7
        },
        {
            "sampler" : 0,
            "source" : 0
        },
        {
            "sampler" : 0,
            "source" : 1
        },
        {
            "sampler" : 0,
            "source" : 3
        },
        {
            "sampler" : 0,
            "source" : 2
        },
        {
            "sampler" : 0,
            "source" : 0
        },
        {
            "sampler" : 0,
            "source" : 1
        },
        {
            "sampler" : 0,
            "source" : 3
        },
        {
            "sampler" : 0,
            "source" : 2
        }
    ],
    "images" : [
        {
            "mimeType" : "image/jpeg",
            "name" : "Image_2",
            "uri" : "Image_2.jpg"
        },
        {
            "mimeType" : "image/jpeg",
            "name" : "Image_4",
            "uri" : "Image_4.jpg"
        },
        {
            "mimeType" : "image/png",
            "name" : "Image_3-Image_1",
            "uri" : "Image_3-Image_1.png"
        },
        {
            "mimeType" : "image/jpeg",
            "name" : "Image_0",
            "uri" : "Image_0.jpg"
        },
        {
            "mimeType" : "image/jpeg",
            "name" : "Image_1",
            "uri" : "Image_1.jpg"
        },
        {
            "mimeType" : "image/png",
            "name" : "Bricks093_1K-PNG_NormalDX",
            "uri" : "Bricks093_1K-PNG_NormalDX.png"
        },
        {
            "mimeType" : "image/png",
            "name" : "Bricks093_1K-PNG_Color",
            "uri" : "Bricks093_1K-PNG_Color.png"
        },
        {
            "mimeType" : "image/png",
            "name" : "Bricks093_1K-PNG_Roughness",
            "uri" : "Bricks093_1K-PNG_Roughness.png"
        }
    ],
    "accessors" : [
        {
            "bufferView" : 0,
            "componentType" : 5126,
            "count" : 16397,
            "max" : [
                0.9424954056739807,
                0.8128451108932495,
                0.900973916053772
            ],
            "min" : [
                -0.9474585652351379,
                -1.18715500831604,
                -0.9009949564933777
            ],
            "type" : "VEC3"
        },
        {
            "bufferView" : 1,
            "componentType" : 5126,
            "count" : 16397,
            "type" : "VEC3"
        },
        {
            "bufferView" : 2,
            "componentType" : 5126,
            "count" : 16397,
            "type" : "VEC2"
        },
        {
            "bufferView" : 3,
            "componentType" : 5123,
            "count" : 46356,
            "type" : "SCALAR"
        },
        {
            "bufferView" : 4,
            "componentType" : 5126,
            "count" : 16397,
            "max" : [
                0.9424954056739807,
                0.8128451108932495,
                0.900973916053772
            ],
            "min" : [
                -0.9474585652351379,
                -1.18715500831604,
                -0.9009949564933777
            ],
            "type" : "VEC3"
        },
        {
            "bufferView" : 5,
            "componentType" : 5126,
            "count" : 16397,
            "type" : "VEC3"
        },
        {
            "bufferView" : 6,
            "componentType" : 5126,
            "count" : 16397,
            "type" : "VEC2"
        },
        {
            "bufferView" : 7,
            "componentType" : 5126,
            "count" : 16397,
            "max" : [
                0.9424954056739807,
                0.8128451108932495,
                0.900973916053772
            ],
            "min" : [
                -0.9474585652351379,
                -1.18715500831604,
                -0.9009949564933777
            ],
            "type" : "VEC3"
        },
        {
            "bufferView" : 8,
            "componentType" : 5126,
            "count" : 16397,
            "type" : "VEC3"
        },
        {
            "bufferView" : 9,
            "componentType" : 5126,
            "count" : 16397,
            "type" : "VEC2"
        },
        {
            "bufferView" : 10,
            "componentType" : 5126,
            "count" : 16397,
            "max" : [
                0.9424954056739807,
                0.8128451108932495,
                0.900973916053772
            ],
            "min" : [
                -0.9474585652351379,
                -1.18715500831604,
                -0.9009949564933777
            ],
            "type" : "VEC3"
        },
        {
            "bufferView" : 11,
            "componentType" : 5126,
            "count" : 16397,
            "type" : "VEC3"
        },
        {
            "bufferView" : 12,
            "componentType" : 5126,
            "count" : 16397,
            "type" : "VEC2"
        },
        {
            "bufferView" : 13,
            "componentType" : 5126,
            "count" : 24,
            "max" : [
                1,
                1,
                1
            ],
            "min" : [
                -1,
                -1,
                -1
            ],
            "type" : "VEC3"
        },
        {
            "bufferView" : 14,
            "componentType" : 5126,
            "count" : 24,
            "type" : "VEC3"
        },
        {
            "bufferView" : 15,
            "componentType" : 5126,
            "count" : 24,
            "type" : "VEC2"
        },
        {
            "bufferView" : 16,
            "componentType" : 5123,
            "count" : 36,
            "type" : "SCALAR"
        },
        {
            "bufferView" : 17,
            "componentType" : 5126,
            "count" : 16397,
            "max" : [
                0.9424954056739807,
                0.8128451108932495,
                0.900973916053772
            ],
            "min" : [
                -0.9474585652351379,
                -1.18715500831604,
                -0.9009949564933777
            ],
            "type" : "VEC3"
        },
        {
            "bufferView" : 18,
            "componentType" : 5126,
            "count" : 16397,
            "type" : "VEC3"
        },
        {
            "bufferView" : 19,
            "componentType" : 5126,
            "count" : 16397,
            "type" : "VEC2"
        },
        {
            "bufferView" : 20,
            "componentType" : 5126,
            "count" : 16397,
            "max" : [
                0.9424954056739807,
                0.8128451108932495,
                0.900973916053772
            ],
            "min" : [
                -0.9474585652351379,
                -1.18715500831604,
                -0.9009949564933777
            ],
            "type" : "VEC3"
        },
        {
            "bufferView" : 21,
            "componentType" : 5126,
            "count" : 16397,
            "type" : "VEC3"
        },
        {
            "bufferView" : 22,
            "componentType" : 5126,
            "count" : 16397,
            "type" : "VEC2"
        }
    ],
    "bufferViews" : [
        {
            "buffer" : 0,
            "byteLength" : 196764,
            "byteOffset" : 0,
            "target" : 34962
        },
        {
            "buffer" : 0,
            "byteLength" : 196764,
            "byteOffset" : 196764,
            "target" : 34962
        },
        {
            "buffer" : 0,
            "byteLength" : 131176,
            "byteOffset" : 393528,
            "target" : 34962
        },
        {
            "buffer" : 0,
            "byteLength" : 92712,
            "byteOffset" : 524704,
            "target" : 34963
        },
        {
            "buffer" : 0,
            "byteLength" : 196764,
            "byteOffset" : 617416,
            "target" : 34962
        },
        {
            "buffer" : 0,
            "byteLength" : 196764,
            "byteOffset" : 814180,
            "target" : 34962
        },
        {
            "buffer" : 0,
            "byteLength" : 131176,
            "byteOffset" : 1010944,
            "target" : 34962
        },
        {
            "buffer" : 0,
            "byteLength" : 196764,
            "byteOffset" : 1142120,
            "target" : 34962
        },
        {
            "buffer" : 0,
            "byteLength" : 196764,
            "byteOffset" : 1338884,
            "target" : 34962
        },
        {
            "buffer" : 0,
            "byteLength" : 131176,
            "byteOffset" : 1535648,
            "target" : 34962
        },
        {
            "buffer" : 0,
            "byteLength" : 196764,
            "byteOffset" : 1666824,
            "target" : 34962
        },
        {
            "buffer" : 0,
            "byteLength" : 196764,
            "byteOffset" : 1863588,
            "target" : 34962
        },
        {
            "buffer" : 0,
            "byteLength" : 131176,
            "byteOffset" : 2060352,
            "target" : 34962
        },
        {
            "buffer" : 0,
            "byteLength" : 288,
            "byteOffset" : 2191528,
            "target" : 34962
        },
        {
            "buffer" : 0,
            "byteLength" : 288,
            "byteOffset" : 2191816,
            "target" : 34962
        },
        {
            "buffer" : 0,
            "byteLength" : 192,
            "byteOffset" : 2192104,
            "target" : 34962
        },
        {
            "buffer" : 0,
            "byteLength" : 72,
            "byteOffset" : 2192296,
            "target" : 34963
        },
        {
            "buffer" : 0,
            "byteLength" : 196764,
            "byteOffset" : 2192368,
            "target" : 34962
        },
        {
            "buffer" : 0,
            "byteLength" : 196764,
            "byteOffset" : 2389132,
            "target" : 34962
        },
        {
            "buffer" : 0,
            "byteLength" : 131176,
            "byteOffset" : 2585896,
            "target" : 34962
        },
        {
            "buffer" : 0,
            "byteLength" : 196764,
            "byteOffset" : 2717072,
            "target" : 34962
        },
        {
            "buffer" : 0,
            "byteLength" : 196764,
            "byteOffset" : 2913836,
            "target" : 34962
        },
        {
            "buffer" : 0,
            "byteLength" : 131176,
            "byteOffset" : 3110600,
            "target" : 34962
        }
    ],
    "samplers" : [
        {
            "magFilter" : 9729,
            "minFilter" : 9987
        }
    ],
    "buffers" : [
        {
            "byteLength" : 3241776,
            "uri" : "DamagedHelmet.bin"
        }
    ]
}
