{
	"asset":{
		"generator":"Khronos glTF Blender I/O v4.4.56",
		"version":"2.0"
	},
	"extensionsUsed":[
		"KHR_materials_specular",
		"KHR_materials_ior"
	],
	"scene":0,
	"scenes":[
		{
			"name":"Scene",
			"nodes":[
				0
			]
		}
	],
	"nodes":[
		{
			"mesh":0,
			"name":"Grass_2.250"
		}
	],
	"materials":[
		{
			"doubleSided":true,
			"extensions":{
				"KHR_materials_specular":{
					"specularFactor":0
				},
				"KHR_materials_ior":{
					"ior":1.4500000476837158
				}
			},
			"name":"Grass_1",
			"pbrMetallicRoughness":{
				"baseColorFactor":[
					0.04600000008940697,
					0.06997500360012054,
					0.019990000873804092,
					1
				],
				"metallicFactor":0
			}
		}
	],
	"meshes":[
		{
			"name":"Grass_2.250",
			"primitives":[
				{
					"attributes":{
						"POSITION":0,
						"NORMAL":1,
						"TEXCOORD_0":2
					},
					"indices":3,
					"material":0
				}
			]
		}
	],
	"accessors":[
		{
			"bufferView":0,
			"componentType":5126,
			"count":1120,
			"max":[
				6.9452667236328125,
				9.303483963012695,
				5.652438640594482
			],
			"min":[
				-6.9487762451171875,
				1.0231029987335205,
				-4.82009744644165
			],
			"type":"VEC3"
		},
		{
			"bufferView":1,
			"componentType":5126,
			"count":1120,
			"type":"VEC3"
		},
		{
			"bufferView":2,
			"componentType":5126,
			"count":1120,
			"type":"VEC2"
		},
		{
			"bufferView":3,
			"componentType":5123,
			"count":2688,
			"type":"SCALAR"
		}
	],
	"bufferViews":[
		{
			"buffer":0,
			"byteLength":13440,
			"byteOffset":0,
			"target":34962
		},
		{
			"buffer":0,
			"byteLength":13440,
			"byteOffset":13440,
			"target":34962
		},
		{
			"buffer":0,
			"byteLength":8960,
			"byteOffset":26880,
			"target":34962
		},
		{
			"buffer":0,
			"byteLength":5376,
			"byteOffset":35840,
			"target":34963
		}
	],
	"buffers":[
		{
			"byteLength":41216,
			"uri":"grass2.bin"
		}
	]
}
