{
	"asset":{
		"generator":"Khronos glTF Blender I/O v4.4.56",
		"version":"2.0"
	},
	"extensionsUsed":[
		"KHR_materials_specular",
		"KHR_materials_ior"
	],
	"scene":0,
	"scenes":[
		{
			"name":"Scene",
			"nodes":[
				0
			]
		}
	],
	"nodes":[
		{
			"mesh":0,
			"name":"Grass_1.250"
		}
	],
	"materials":[
		{
			"doubleSided":true,
			"extensions":{
				"KHR_materials_specular":{
					"specularFactor":0
				},
				"KHR_materials_ior":{
					"ior":1.4500000476837158
				}
			},
			"name":"Grass_4",
			"pbrMetallicRoughness":{
				"baseColorFactor":[
					0.07479400187730789,
					0.10653200000524521,
					0.0698850005865097,
					1
				],
				"metallicFactor":0
			}
		}
	],
	"meshes":[
		{
			"name":"Grass_1.250",
			"primitives":[
				{
					"attributes":{
						"POSITION":0,
						"NORMAL":1,
						"TEXCOORD_0":2
					},
					"indices":3,
					"material":0
				}
			]
		}
	],
	"accessors":[
		{
			"bufferView":0,
			"componentType":5126,
			"count":1384,
			"max":[
				6.1750030517578125,
				13.159019470214844,
				5.6392974853515625
			],
			"min":[
				-7.6644134521484375,
				1.0204399824142456,
				-4.848767280578613
			],
			"type":"VEC3"
		},
		{
			"bufferView":1,
			"componentType":5126,
			"count":1384,
			"type":"VEC3"
		},
		{
			"bufferView":2,
			"componentType":5126,
			"count":1384,
			"type":"VEC2"
		},
		{
			"bufferView":3,
			"componentType":5123,
			"count":3936,
			"type":"SCALAR"
		}
	],
	"bufferViews":[
		{
			"buffer":0,
			"byteLength":16608,
			"byteOffset":0,
			"target":34962
		},
		{
			"buffer":0,
			"byteLength":16608,
			"byteOffset":16608,
			"target":34962
		},
		{
			"buffer":0,
			"byteLength":11072,
			"byteOffset":33216,
			"target":34962
		},
		{
			"buffer":0,
			"byteLength":7872,
			"byteOffset":44288,
			"target":34963
		}
	],
	"buffers":[
		{
			"byteLength":52160,
			"uri":"grass1.bin"
		}
	]
}
