{
	"asset":{
		"generator":"Khronos glTF Blender I/O v4.4.56",
		"version":"2.0"
	},
	"scene":0,
	"scenes":[
		{
			"name":"Scene",
			"nodes":[
				0,
				1
			]
		}
	],
	"nodes":[
		{
			"mesh":0,
			"name":"leaves.001",
			"rotation":[
				0.7071068286895752,
				0,
				0,
				0.7071068286895752
			]
		},
		{
			"mesh":1,
			"name":"tree.001_Mesh.002",
			"rotation":[
				0.7071068286895752,
				0,
				0,
				0.7071068286895752
			]
		}
	],
	"materials":[
		{
			"doubleSided":true,
			"name":"Leaves",
			"pbrMetallicRoughness":{
				"baseColorFactor":[
					0.6399999856948853,
					0.6399999856948853,
					0.6399999856948853,
					1
				],
				"metallicFactor":0,
				"roughnessFactor":0.6900347471237183
			}
		},
		{
			"doubleSided":true,
			"name":"Material.001",
			"pbrMetallicRoughness":{
				"baseColorFactor":[
					0.6399999856948853,
					0.6399999856948853,
					0.6399999856948853,
					1
				],
				"metallicFactor":0,
				"roughnessFactor":0.6900347471237183
			}
		}
	],
	"meshes":[
		{
			"name":"leaves.001",
			"primitives":[
				{
					"attributes":{
						"POSITION":0,
						"NORMAL":1,
						"TEXCOORD_0":2
					},
					"indices":3,
					"material":0
				}
			]
		},
		{
			"name":"tree.001_Mesh.002",
			"primitives":[
				{
					"attributes":{
						"POSITION":4,
						"NORMAL":5
					},
					"indices":6,
					"material":1
				}
			]
		}
	],
	"accessors":[
		{
			"bufferView":0,
			"componentType":5126,
			"count":362852,
			"max":[
				3.991142988204956,
				4.522014141082764,
				-4.5306172370910645
			],
			"min":[
				-3.681307077407837,
				-4.065607070922852,
				-17.672042846679688
			],
			"type":"VEC3"
		},
		{
			"bufferView":1,
			"componentType":5126,
			"count":362852,
			"type":"VEC3"
		},
		{
			"bufferView":2,
			"componentType":5126,
			"count":362852,
			"type":"VEC2"
		},
		{
			"bufferView":3,
			"componentType":5125,
			"count":544278,
			"type":"SCALAR"
		},
		{
			"bufferView":4,
			"componentType":5126,
			"count":108416,
			"max":[
				3.91068696975708,
				4.3068718910217285,
				0.012236000038683414
			],
			"min":[
				-3.5128469467163086,
				-3.8573410511016846,
				-17.49358558654785
			],
			"type":"VEC3"
		},
		{
			"bufferView":5,
			"componentType":5126,
			"count":108416,
			"type":"VEC3"
		},
		{
			"bufferView":6,
			"componentType":5125,
			"count":366192,
			"type":"SCALAR"
		}
	],
	"bufferViews":[
		{
			"buffer":0,
			"byteLength":4354224,
			"byteOffset":0,
			"target":34962
		},
		{
			"buffer":0,
			"byteLength":4354224,
			"byteOffset":4354224,
			"target":34962
		},
		{
			"buffer":0,
			"byteLength":2902816,
			"byteOffset":8708448,
			"target":34962
		},
		{
			"buffer":0,
			"byteLength":2177112,
			"byteOffset":11611264,
			"target":34963
		},
		{
			"buffer":0,
			"byteLength":1300992,
			"byteOffset":13788376,
			"target":34962
		},
		{
			"buffer":0,
			"byteLength":1300992,
			"byteOffset":15089368,
			"target":34962
		},
		{
			"buffer":0,
			"byteLength":1464768,
			"byteOffset":16390360,
			"target":34963
		}
	],
	"buffers":[
		{
			"byteLength":17855128,
			"uri":"tree2.bin"
		}
	]
}
