{
	"asset":{
		"generator":"Khronos glTF Blender I/O v4.4.56",
		"version":"2.0"
	},
	"scene":0,
	"scenes":[
		{
			"name":"Scene",
			"nodes":[
				0,
				1
			]
		}
	],
	"nodes":[
		{
			"mesh":0,
			"name":"leaves.002_leaves.004",
			"rotation":[
				0.7071068286895752,
				0,
				0,
				0.7071068286895752
			]
		},
		{
			"mesh":1,
			"name":"tree.002_Mesh.001",
			"rotation":[
				0.7071068286895752,
				0,
				0,
				0.7071068286895752
			]
		}
	],
	"materials":[
		{
			"doubleSided":true,
			"name":"Leaves.002",
			"pbrMetallicRoughness":{
				"baseColorFactor":[
					0.6399999856948853,
					0.6399999856948853,
					0.6399999856948853,
					1
				],
				"metallicFactor":0,
				"roughnessFactor":0.6900347471237183
			}
		},
		{
			"doubleSided":true,
			"name":"Material.001",
			"pbrMetallicRoughness":{
				"baseColorFactor":[
					0.6399999856948853,
					0.6399999856948853,
					0.6399999856948853,
					1
				],
				"metallicFactor":0,
				"roughnessFactor":0.6900347471237183
			}
		}
	],
	"meshes":[
		{
			"name":"leaves.002_leaves.004",
			"primitives":[
				{
					"attributes":{
						"POSITION":0,
						"NORMAL":1,
						"TEXCOORD_0":2
					},
					"indices":3,
					"material":0
				}
			]
		},
		{
			"name":"tree.002_Mesh.001",
			"primitives":[
				{
					"attributes":{
						"POSITION":4,
						"NORMAL":5
					},
					"indices":6,
					"material":1
				}
			]
		}
	],
	"accessors":[
		{
			"bufferView":0,
			"componentType":5126,
			"count":226436,
			"max":[
				4.61396598815918,
				13.822406768798828,
				-0.5831109881401062
			],
			"min":[
				-4.780093193054199,
				5.123696804046631,
				-16.023761749267578
			],
			"type":"VEC3"
		},
		{
			"bufferView":1,
			"componentType":5126,
			"count":226436,
			"type":"VEC3"
		},
		{
			"bufferView":2,
			"componentType":5126,
			"count":226436,
			"type":"VEC2"
		},
		{
			"bufferView":3,
			"componentType":5125,
			"count":339654,
			"type":"SCALAR"
		},
		{
			"bufferView":4,
			"componentType":5126,
			"count":118304,
			"max":[
				4.484496116638184,
				13.80853271484375,
				0.012269999831914902
			],
			"min":[
				-4.642541885375977,
				5.268299102783203,
				-15.860158920288086
			],
			"type":"VEC3"
		},
		{
			"bufferView":5,
			"componentType":5126,
			"count":118304,
			"type":"VEC3"
		},
		{
			"bufferView":6,
			"componentType":5125,
			"count":400128,
			"type":"SCALAR"
		}
	],
	"bufferViews":[
		{
			"buffer":0,
			"byteLength":2717232,
			"byteOffset":0,
			"target":34962
		},
		{
			"buffer":0,
			"byteLength":2717232,
			"byteOffset":2717232,
			"target":34962
		},
		{
			"buffer":0,
			"byteLength":1811488,
			"byteOffset":5434464,
			"target":34962
		},
		{
			"buffer":0,
			"byteLength":1358616,
			"byteOffset":7245952,
			"target":34963
		},
		{
			"buffer":0,
			"byteLength":1419648,
			"byteOffset":8604568,
			"target":34962
		},
		{
			"buffer":0,
			"byteLength":1419648,
			"byteOffset":10024216,
			"target":34962
		},
		{
			"buffer":0,
			"byteLength":1600512,
			"byteOffset":11443864,
			"target":34963
		}
	],
	"buffers":[
		{
			"byteLength":13044376,
			"uri":"tree3.bin"
		}
	]
}
