{
	"asset":{
		"generator":"Khronos glTF Blender I/O v4.4.56",
		"version":"2.0"
	},
	"scene":0,
	"scenes":[
		{
			"name":"Scene",
			"nodes":[
				0,
				1
			]
		}
	],
	"nodes":[
		{
			"mesh":0,
			"name":"leaves_leaves.002",
			"rotation":[
				0.7071068286895752,
				0,
				0,
				0.7071068286895752
			]
		},
		{
			"mesh":1,
			"name":"tree_Mesh.003",
			"rotation":[
				0.7071068286895752,
				0,
				0,
				0.7071068286895752
			]
		}
	],
	"materials":[
		{
			"doubleSided":true,
			"name":"Leaves.001",
			"pbrMetallicRoughness":{
				"baseColorFactor":[
					0.6399999856948853,
					0.6399999856948853,
					0.6399999856948853,
					1
				],
				"metallicFactor":0,
				"roughnessFactor":0.6900347471237183
			}
		},
		{
			"doubleSided":true,
			"name":"Material.001",
			"pbrMetallicRoughness":{
				"baseColorFactor":[
					0.6399999856948853,
					0.6399999856948853,
					0.6399999856948853,
					1
				],
				"metallicFactor":0,
				"roughnessFactor":0.6900347471237183
			}
		}
	],
	"meshes":[
		{
			"name":"leaves_leaves.002",
			"primitives":[
				{
					"attributes":{
						"POSITION":0,
						"NORMAL":1,
						"TEXCOORD_0":2
					},
					"indices":3,
					"material":0
				}
			]
		},
		{
			"name":"tree_Mesh.003",
			"primitives":[
				{
					"attributes":{
						"POSITION":4,
						"NORMAL":5
					},
					"indices":6,
					"material":1
				}
			]
		}
	],
	"accessors":[
		{
			"bufferView":0,
			"componentType":5126,
			"count":297664,
			"max":[
				4.517836093902588,
				-5.309194087982178,
				-4.808340072631836
			],
			"min":[
				-4.982464790344238,
				-14.670548439025879,
				-16.135419845581055
			],
			"type":"VEC3"
		},
		{
			"bufferView":1,
			"componentType":5126,
			"count":297664,
			"type":"VEC3"
		},
		{
			"bufferView":2,
			"componentType":5126,
			"count":297664,
			"type":"VEC2"
		},
		{
			"bufferView":3,
			"componentType":5125,
			"count":446496,
			"type":"SCALAR"
		},
		{
			"bufferView":4,
			"componentType":5126,
			"count":88992,
			"max":[
				4.396391868591309,
				-5.4497389793396,
				0.008179999887943268
			],
			"min":[
				-4.766063213348389,
				-14.464900970458984,
				-15.937946319580078
			],
			"type":"VEC3"
		},
		{
			"bufferView":5,
			"componentType":5126,
			"count":88992,
			"type":"VEC3"
		},
		{
			"bufferView":6,
			"componentType":5125,
			"count":300672,
			"type":"SCALAR"
		}
	],
	"bufferViews":[
		{
			"buffer":0,
			"byteLength":3571968,
			"byteOffset":0,
			"target":34962
		},
		{
			"buffer":0,
			"byteLength":3571968,
			"byteOffset":3571968,
			"target":34962
		},
		{
			"buffer":0,
			"byteLength":2381312,
			"byteOffset":7143936,
			"target":34962
		},
		{
			"buffer":0,
			"byteLength":1785984,
			"byteOffset":9525248,
			"target":34963
		},
		{
			"buffer":0,
			"byteLength":1067904,
			"byteOffset":11311232,
			"target":34962
		},
		{
			"buffer":0,
			"byteLength":1067904,
			"byteOffset":12379136,
			"target":34962
		},
		{
			"buffer":0,
			"byteLength":1202688,
			"byteOffset":13447040,
			"target":34963
		}
	],
	"buffers":[
		{
			"byteLength":14649728,
			"uri":"tree1.bin"
		}
	]
}
